<svg width="319" height="59" fill="none" xmlns="http://www.w3.org/2000/svg"><path d="m106.045 11.6886-2.634 2.2503c-.837-1.0279-1.862-1.5419-3.08-1.5419-1.1047 0-2.0399.4154-2.8061 1.2436-.7662.8283-1.1466 1.8349-1.1466 3.02 0 1.185.3831 2.181 1.1466 3.0305.7662.8495 1.7014 1.2756 2.8061 1.2756 1.926 0 3.046-.6578 3.358-1.9706h-4.1033v-2.8708h7.9713c0 2.7136-.653 4.7429-1.956 6.0851-1.305 1.3421-3.059 2.0132-5.27 2.0132-2.2117 0-3.8972-.7403-5.3556-2.2183-1.4584-1.478-2.1902-3.2596-2.1902-5.3447 0-2.0852.7291-3.8881 2.1902-5.3661 1.4584-1.478 3.2443-2.21833 5.3556-2.21833 1.162 0 2.243.23169 3.241.69506.999.46337 1.823 1.10247 2.476 1.91737h-.003ZM120.704 22.6683c-1.142 1.036-2.497 1.5526-4.072 1.5526-1.574 0-2.93-.5166-4.068-1.5526-1.142-1.0359-1.712-2.3754-1.712-4.0158V9.27051h3.569v9.38199c0 .6417.222 1.1717.668 1.5845.447.4154.959.6205 1.541.6205.581 0 1.093-.2078 1.54-.6205.446-.4155.668-.9428.668-1.5845V9.27051h3.57v9.38199c0 1.6431-.571 2.9826-1.712 4.0158h.008ZM126.973 24.0289V9.26758h5.801c2.056 0 3.678.69506 4.867 2.08782 1.189 1.3928 1.786 3.1664 1.786 5.3235 0 2.157-.592 3.9013-1.775 5.2808-1.184 1.3795-2.809 2.0665-4.878 2.0665h-5.801v.0027Zm3.569-11.5683v8.3753h2.232c.978 0 1.739-.4021 2.286-1.209.544-.8069.819-1.7896.819-2.9454 0-1.1557-.272-2.1677-.819-2.9879-.544-.8202-1.308-1.233-2.286-1.233h-2.232ZM153.827 13.2302c0 .5566-.164 1.1291-.489 1.715-.325.5859-.85.9853-1.572 1.1984.922.1438 1.623.5646 2.103 1.2649.481.7004.724 1.4487.724 2.2503 0 1.2144-.391 2.245-1.167 3.0945-.78.8495-1.998 1.2756-3.657 1.2756h-6.417V9.26758h5.994c1.361 0 2.447.36484 3.263 1.09182.814.7297 1.223 1.6857 1.223 2.8708h-.005Zm-6.906 1.7363h1.913c.367 0 .665-.1092.893-.3329.227-.221.341-.5166.341-.8894 0-.9001-.397-1.3502-1.189-1.3502h-1.955v2.5699l-.003.0026Zm2.254 2.9347h-2.254v2.9986h2.275c.523 0 .927-.1491 1.212-.4501.283-.3009.426-.6577.426-1.0705 0-.3861-.138-.7297-.415-1.0279-.278-.301-.69-.4501-1.244-.4501ZM162.013 24.0289h-3.548V9.26758h6.058c1.614 0 2.856.48467 3.72 1.45672.864.972 1.297 2.1278 1.297 3.4699 0 1.1132-.301 2.1092-.903 2.988-.603.8788-1.469 1.4593-2.605 1.7469l3.572 5.0998h-4.125l-3.144-4.9267h-.319v4.9267h-.003Zm2.338-11.6322h-2.338v3.6191h2.338c.539 0 .938-.1785 1.202-.5353.262-.3569.394-.7856.394-1.2863 0-.5006-.132-.924-.394-1.2756-.261-.3488-.663-.5246-1.202-.5246v.0027ZM182.98 24.0289l-1.231-3.3847h-4.613l-1.234 3.3847h-3.804l5.397-14.76132h3.868l5.377 14.76132h-3.763.003Zm-3.569-11.3313-1.319 4.8627h2.743l-1.424-4.8627ZM197.185 9.26758h3.549V24.0289h-3.105l-4.483-8.0557v8.0557h-3.548V9.26758h3.21l4.377 7.94652V9.26758ZM205.402 24.0289V9.26758h5.802c2.056 0 3.678.69506 4.867 2.08782 1.189 1.3928 1.786 3.1664 1.786 5.3235 0 2.157-.592 3.9013-1.776 5.2808-1.183 1.3795-2.808 2.0665-4.877 2.0665h-5.802v.0027Zm3.57-11.5683v8.3753h2.232c.978 0 1.739-.4021 2.285-1.209.545-.8069.82-1.7896.82-2.9454 0-1.1557-.273-2.1677-.82-2.9879-.544-.8202-1.307-1.233-2.285-1.233h-2.232ZM220.93 19.6349h3.59c.029.4288.19.775.489 1.0386.298.2637.737.3968 1.318.3968.497 0 .922-.1145 1.276-.3435.354-.229.531-.5566.531-.9854 0-.1278-.013-.2343-.042-.3222-.029-.0852-.164-.221-.404-.4074-.24-.1864-.581-.3489-1.02-.4927l-1.722-.5779c-.78-.213-1.438-.5006-1.977-.8575-.539-.3568-.932-.7456-1.178-1.1664-.248-.4208-.423-.8176-.52-1.1877-.101-.3702-.148-.751-.148-1.1345 0-1.3422.48-2.4314 1.445-3.2676.964-.83616 2.19-1.25426 3.677-1.25426 1.488 0 2.701.41011 3.636 1.23296.935.8203 1.403 1.9467 1.403 3.3741h-3.549c0-.9134-.509-1.3714-1.529-1.3714-.481 0-.862.1065-1.136.3222-.278.213-.415.5006-.415.8575 0 .5299.454.9294 1.361 1.201l1.661.5246c2.716.8602 4.074 2.3622 4.077 4.5086 0 1.0279-.291 1.8961-.872 2.6018s-1.26 1.1984-2.04 1.478c-.779.2796-1.614.4181-2.507.4181-1.643 0-2.954-.4181-3.931-1.2543-.978-.8362-1.466-1.9467-1.466-3.3315h-.008ZM235.652 24.0289V9.26758h5.802c2.056 0 3.678.69506 4.867 2.08782 1.189 1.3928 1.786 3.1664 1.786 5.3235 0 2.157-.592 3.9013-1.776 5.2808-1.183 1.3795-2.808 2.0665-4.877 2.0665h-5.802v.0027Zm3.57-11.5683v8.3753h2.232c.978 0 1.739-.4021 2.285-1.209.545-.8069.82-1.7896.82-2.9454 0-1.1557-.273-2.1677-.82-2.9879-.544-.8202-1.307-1.233-2.285-1.233h-2.232ZM260.533 24.0289l-1.233-3.3847h-4.613l-1.234 3.3847h-3.805l5.398-14.76132h3.868l5.376 14.76132h-3.762.005Zm-3.569-11.3313-1.318 4.8627h2.742l-1.424-4.8627ZM276.014 24.0289h-8.862V9.26758h3.591V20.8998h5.271V24.0289ZM288.894 24.0289h-9.691V9.26758h9.501v3.12912h-5.95v2.8281h5.228v3.0625h-5.228v2.6125h6.143v3.1264l-.003.0027ZM300.65 9.26758h3.549V24.0289h-3.105l-4.483-8.0557v8.0557h-3.549V9.26758h3.211l4.377 7.94652V9.26758ZM308.176 19.6349h3.59c.029.4288.19.775.489 1.0386.299.2637.737.3968 1.318.3968.497 0 .922-.1145 1.276-.3435.354-.229.532-.5566.532-.9854 0-.1278-.014-.2343-.043-.3222-.029-.0852-.164-.221-.404-.4074-.24-.1864-.581-.3489-1.02-.4927l-1.722-.5779c-.78-.213-1.438-.5006-1.977-.8575-.539-.3568-.932-.7456-1.178-1.1664-.248-.4208-.423-.8176-.52-1.1877-.101-.3702-.148-.751-.148-1.1345 0-1.3422.481-2.4314 1.445-3.2676.964-.83616 2.19-1.25426 3.677-1.25426 1.488 0 2.701.41011 3.636 1.23296.935.8203 1.403 1.9467 1.403 3.3741h-3.548c0-.9134-.51-1.3714-1.53-1.3714-.481 0-.861.1065-1.136.3222-.278.213-.415.5006-.415.8575 0 .5299.454.9294 1.361 1.201l1.661.5246c2.716.8602 4.074 2.3622 4.077 4.5086 0 1.0279-.291 1.8961-.872 2.6018s-1.26 1.1984-2.039 1.478c-.78.2796-1.615.4181-2.508.4181-1.643 0-2.953-.4181-3.931-1.2543-.978-.8362-1.466-1.9467-1.466-3.3315h-.008ZM103.293 48.3744c-1.141 1.0359-2.496 1.5526-4.0709 1.5526-1.5746 0-2.93-.5167-4.0687-1.5526-1.1413-1.0359-1.712-2.3754-1.712-4.0159v-9.3819h3.5693v9.3819c0 .6418.222 1.1718.6685 1.5845.4465.4155.959.6205 1.5403.6205.5812 0 1.0935-.2077 1.5405-.6205.446-.4127.668-.9427.668-1.5845v-9.3819h3.57v9.3819c0 1.6431-.571 2.9826-1.713 4.0159h.008ZM118.428 49.7354h-8.862V34.9741h3.591v11.6322h5.271v3.1291ZM121.613 49.7354V34.9741h5.802c2.056 0 3.678.6951 4.867 2.0879 1.189 1.3927 1.786 3.1663 1.786 5.3234 0 2.1571-.592 3.9014-1.776 5.2808-1.183 1.3795-2.808 2.0666-4.877 2.0666h-5.802v.0026Zm3.57-11.5683v8.3753h2.232c.978 0 1.739-.4021 2.285-1.209.545-.8069.819-1.7896.819-2.9453 0-1.1558-.272-2.1678-.819-2.988-.544-.8202-1.307-1.2303-2.285-1.2303h-2.232v-.0027ZM140.564 49.7354l-4.462-14.7613h3.698l2.339 8.9985 2.295-8.9985h3.741l-4.483 14.7613h-3.128ZM159.701 49.7354l-1.233-3.3847h-4.613l-1.234 3.3847h-3.805l5.398-14.7613h3.868l5.376 14.7613h-3.762.005Zm-3.569-11.3313-1.318 4.8628h2.742l-1.424-4.8628ZM169.865 49.7354h-3.549V34.9741h6.059c1.614 0 2.856.4847 3.719 1.4567.864.972 1.298 2.1278 1.298 3.47 0 1.1131-.302 2.1091-.904 2.9879-.602.8788-1.469 1.4594-2.602 1.747l3.569 5.0997h-4.124l-3.147-4.9266h-.319v4.9266Zm2.338-11.6322h-2.338v3.6191h2.338c.539 0 .938-.1784 1.202-.5353.261-.3568.394-.7856.394-1.2862 0-.5007-.133-.9241-.394-1.2756-.262-.3489-.663-.5247-1.202-.5247v.0027ZM191.042 49.7354h-9.69V34.9741h9.5v3.1291h-5.95v2.8282h5.229v3.0625h-5.229v2.6124h6.143v3.1291h-.003ZM198.809 49.7354h-3.59V34.9741h9.416v3.1291h-5.823v2.8282h4.613v3.0838h-4.613v5.7202h-.003ZM216.389 49.7354l-1.234-3.3847h-4.613l-1.234 3.3847h-3.804l5.398-14.7613h3.867l5.377 14.7613h-3.762.005Zm-3.569-11.3313-1.319 4.8628h2.743l-1.424-4.8628ZM233.483 38.9367c0 .5566-.163 1.1292-.488 1.7151-.325.5858-.851.9853-1.572 1.1983.922.1438 1.622.5646 2.103 1.265.48.7004.724 1.4487.724 2.2503 0 1.2143-.391 2.2449-1.168 3.0944-.78.8495-1.998 1.2756-3.657 1.2756h-6.417V34.9741H229c1.36 0 2.446.3649 3.263 1.0919.813.7296 1.22 1.6857 1.22 2.8707Zm-6.906 1.7364h1.913c.367 0 .666-.1119.893-.3329.227-.2211.341-.5167.341-.8895 0-.9001-.397-1.3502-1.189-1.3502h-1.955v2.5699l-.003.0027Zm2.254 2.9346h-2.254v2.9986h2.275c.523 0 .927-.1491 1.21-.45.283-.3009.425-.6578.425-1.0706 0-.3861-.137-.7296-.414-1.0279-.278-.2983-.69-.4501-1.245-.4501h.003ZM241.669 49.7354h-3.548V34.9741h6.058c1.614 0 2.856.4847 3.72 1.4567.864.972 1.297 2.1278 1.297 3.47 0 1.1131-.301 2.1091-.903 2.9879-.603.8788-1.469 1.4594-2.603 1.747l3.57 5.0997h-4.124l-3.147-4.9266h-.32v4.9266Zm2.338-11.6322h-2.338v3.6191h2.338c.539 0 .938-.1784 1.203-.5353.261-.3568.393-.7856.393-1.2862 0-.5007-.132-.9241-.393-1.2756-.262-.3489-.664-.5247-1.203-.5247v.0027ZM253.145 49.7354V34.9741h3.548v14.7613h-3.548ZM266.769 42.2576l6.842 7.4778h-4.866l-3.826-4.4979v4.4979h-3.548V34.9741h3.548v4.2076l2.912-4.2076h4.441l-5.503 7.2835ZM57.1451 42.0044c0 3.5152 0 7.105-5.5588 7.105s-5.675-4.1251-5.675-7.105V22.7105l-11.173 11.2621v8.0291c0 6.4952.7688 8.2954 4.3751 12.29C42.7198 58.225 48.5137 59 51.7078 59c5.4399 0 9.4003-1.8482 12.2378-4.7669 2.7793-2.8601 4.3751-4.8387 4.3751-12.2287V0l-11.173 11.2621v30.7423h-.0026Z" fill="#000"/><path d="M23.0435 40.1056c-7.0673 0-12.8137-5.7948-12.8137-12.9158s5.749-12.8626 12.8137-12.8626c4.2774 0 8.0713 1.9734 10.3989 5.4353h11.4081c-1.1228-3.4619-2.9881-6.3966-5.5138-8.9425-4.3514-4.38606-10.14-6.83074-16.2932-6.83074-6.1532 0-11.9418 2.40207-16.2932 6.78814C2.39629 15.1661 0 20.9929 0 27.1951c0 6.2023 2.39629 12.0344 6.7503 16.4204 2.48084 2.5006 5.424 4.3568 8.6393 5.4939l9.0251-9.0783c-.4518.0479-.9089.0719-1.3712.0719v.0026Z" fill="#000" style="mix-blend-mode:multiply"/><path d="m19.3984 33.9753 11.1413-.0054 11.0753-11.278H19.3984v11.2834Z" fill="#000"/></svg>