<svg width="320" height="59" fill="none" xmlns="http://www.w3.org/2000/svg"><path d="m106.376 11.6886-2.642 2.2503c-.84-1.0279-1.869-1.5419-3.091-1.5419-1.1074 0-2.0456.4154-2.8142 1.2436-.7686.8283-1.1502 1.8349-1.1502 3.02 0 1.185.3843 2.181 1.1502 3.0305.7686.8495 1.7068 1.2756 2.8142 1.2756 1.932 0 3.056-.6578 3.369-1.9706h-4.116v-2.8708h7.996c0 2.7136-.655 4.7429-1.961 6.0851-1.31 1.3421-3.069 2.0132-5.288 2.0132-2.2179 0-3.9087-.7403-5.3717-2.2183-1.463-1.478-2.1971-3.2596-2.1971-5.3447 0-2.0852.7315-3.8881 2.1971-5.3661 1.463-1.478 3.2545-2.21833 5.3717-2.21833 1.167 0 2.25.23169 3.252.69506 1.002.46337 1.829 1.10247 2.484 1.91737h-.003ZM121.08 22.6683c-1.145 1.036-2.504 1.5526-4.084 1.5526-1.579 0-2.939-.5166-4.081-1.5526-1.145-1.0359-1.718-2.3754-1.718-4.0158V9.27051h3.581v9.38199c0 .6417.222 1.1717.67 1.5845.448.4154.962.6205 1.545.6205s1.098-.2078 1.546-.6205c.447-.4155.67-.9428.67-1.5845V9.27051h3.581v9.38199c0 1.6431-.573 2.9826-1.718 4.0158h.008ZM127.369 24.0289V9.26758h5.82c2.062 0 3.689.69506 4.882 2.08782 1.193 1.3928 1.792 3.1664 1.792 5.3235 0 2.157-.594 3.9013-1.781 5.2808-1.188 1.3795-2.818 2.0665-4.893 2.0665h-5.82v.0027Zm3.581-11.5683v8.3753h2.239c.981 0 1.744-.4021 2.293-1.209.546-.8069.821-1.7896.821-2.9454 0-1.1557-.273-2.1677-.821-2.9879-.546-.8202-1.312-1.233-2.293-1.233h-2.239ZM154.307 13.2302c0 .5566-.164 1.1291-.49 1.715-.326.5859-.854.9853-1.577 1.1984.925.1438 1.627.5646 2.11 1.2649.482.7004.726 1.4487.726 2.2503 0 1.2144-.392 2.245-1.172 3.0945-.781.8495-2.003 1.2756-3.668 1.2756h-6.437V9.26758h6.013c1.365 0 2.454.36484 3.273 1.09182.817.7297 1.227 1.6857 1.227 2.8708h-.005Zm-6.928 1.7363h1.919c.369 0 .668-.1092.896-.3329.228-.221.342-.5166.342-.8894 0-.9001-.398-1.3502-1.193-1.3502h-1.961v2.5699l-.003.0026Zm2.261 2.9347h-2.261v2.9986h2.282c.525 0 .93-.1491 1.217-.4501.283-.3009.426-.6577.426-1.0705 0-.3861-.137-.7297-.416-1.0279-.278-.301-.691-.4501-1.248-.4501ZM162.52 24.0289h-3.559V9.26758h6.077c1.619 0 2.865.48467 3.732 1.45672.866.972 1.301 2.1278 1.301 3.4699 0 1.1132-.302 2.1092-.906 2.988-.605.8788-1.474 1.4593-2.614 1.7469l3.584 5.0998h-4.138l-3.153-4.9267h-.321v4.9267h-.003Zm2.346-11.6322h-2.346v3.6191h2.346c.54 0 .941-.1785 1.206-.5353.262-.3569.395-.7856.395-1.2863 0-.5006-.133-.924-.395-1.2756-.263-.3488-.666-.5246-1.206-.5246v.0027ZM183.551 24.0289l-1.235-3.3847h-4.627l-1.238 3.3847h-3.816l5.414-14.76132h3.88l5.394 14.76132h-3.774.002Zm-3.58-11.3313-1.323 4.8627h2.751l-1.428-4.8627ZM197.803 9.26758h3.559V24.0289h-3.114l-4.497-8.0557v8.0557h-3.56V9.26758h3.221l4.391 7.94652V9.26758ZM206.045 24.0289V9.26758h5.82c2.062 0 3.689.69506 4.882 2.08782 1.192 1.3928 1.791 3.1664 1.791 5.3235 0 2.157-.593 3.9013-1.781 5.2808-1.187 1.3795-2.817 2.0665-4.892 2.0665h-5.82v.0027Zm3.58-11.5683v8.3753h2.24c.981 0 1.744-.4021 2.292-1.209.546-.8069.822-1.7896.822-2.9454 0-1.1557-.273-2.1677-.822-2.9879-.546-.8202-1.311-1.233-2.292-1.233h-2.24ZM221.621 19.6349h3.602c.029.4288.191.775.49 1.0386.3.2637.74.3968 1.323.3968.498 0 .925-.1145 1.28-.3435.355-.229.532-.5566.532-.9854 0-.1278-.013-.2343-.042-.3222-.029-.0852-.164-.221-.405-.4074-.242-.1864-.584-.3489-1.023-.4927l-1.728-.5779c-.782-.213-1.442-.5006-1.983-.8575-.541-.3568-.935-.7456-1.182-1.1664-.249-.4208-.424-.8176-.522-1.1877-.101-.3702-.148-.751-.148-1.1345 0-1.3422.482-2.4314 1.449-3.2676.968-.83616 2.197-1.25426 3.689-1.25426 1.493 0 2.709.41011 3.647 1.23296.938.8203 1.408 1.9467 1.408 3.3741h-3.56c0-.9134-.511-1.3714-1.534-1.3714-.483 0-.864.1065-1.14.3222-.278.213-.416.5006-.416.8575 0 .5299.456.9294 1.365 1.201l1.667.5246c2.724.8602 4.087 2.3622 4.089 4.5086 0 1.0279-.291 1.8961-.874 2.6018s-1.264 1.1984-2.046 1.478c-.782.2796-1.62.4181-2.515.4181-1.649 0-2.963-.4181-3.944-1.2543-.981-.8362-1.471-1.9467-1.471-3.3315h-.008ZM236.389 24.0289V9.26758h5.82c2.062 0 3.689.69506 4.882 2.08782 1.192 1.3928 1.791 3.1664 1.791 5.3235 0 2.157-.594 3.9013-1.781 5.2808-1.187 1.3795-2.817 2.0665-4.892 2.0665h-5.82v.0027Zm3.58-11.5683v8.3753h2.24c.98 0 1.744-.4021 2.292-1.209.546-.8069.822-1.7896.822-2.9454 0-1.1557-.273-2.1677-.822-2.9879-.546-.8202-1.312-1.233-2.292-1.233h-2.24ZM261.349 24.0289l-1.238-3.3847h-4.627l-1.238 3.3847h-3.816l5.414-14.76132h3.88l5.394 14.76132h-3.774.005Zm-3.581-11.3313-1.322 4.8627h2.751l-1.429-4.8627ZM276.877 24.0289h-8.889V9.26758h3.602V20.8998h5.287V24.0289ZM289.797 24.0289h-9.721V9.26758h9.531v3.12912h-5.969v2.8281h5.245v3.0625h-5.245v2.6125h6.162v3.1264l-.003.0027ZM301.59 9.26758h3.559V24.0289h-3.114l-4.497-8.0557v8.0557h-3.559V9.26758h3.22l4.391 7.94652V9.26758ZM309.141 19.6349h3.601c.03.4288.191.775.491 1.0386.299.2637.739.3968 1.322.3968.498 0 .925-.1145 1.28-.3435.355-.229.533-.5566.533-.9854 0-.1278-.013-.2343-.042-.3222-.03-.0852-.165-.221-.406-.4074-.241-.1864-.583-.3489-1.023-.4927l-1.728-.5779c-.782-.213-1.442-.5006-1.982-.8575-.541-.3568-.936-.7456-1.182-1.1664-.25-.4208-.424-.8176-.522-1.1877-.101-.3702-.149-.751-.149-1.1345 0-1.3422.482-2.4314 1.45-3.2676.967-.83616 2.197-1.25426 3.689-1.25426s2.709.41011 3.647 1.23296c.938.8203 1.407 1.9467 1.407 3.3741h-3.559c0-.9134-.512-1.3714-1.535-1.3714-.482 0-.864.1065-1.139.3222-.279.213-.416.5006-.416.8575 0 .5299.455.9294 1.364 1.201l1.667.5246c2.725.8602 4.087 2.3622 4.09 4.5086 0 1.0279-.292 1.8961-.875 2.6018s-1.264 1.1984-2.046 1.478c-.782.2796-1.619.4181-2.515.4181-1.648 0-2.963-.4181-3.943-1.2543-.981-.8362-1.471-1.9467-1.471-3.3315h-.008ZM103.617 48.3744c-1.145 1.0359-2.504 1.5526-4.0838 1.5526-1.5796 0-2.9392-.5167-4.0814-1.5526-1.145-1.0359-1.7174-2.3754-1.7174-4.0159v-9.3819h3.5805v9.3819c0 .6418.2226 1.1718.6705 1.5845.4479.4155.9621.6205 1.5451.6205.5835 0 1.0975-.2077 1.5455-.6205.448-.4127.67-.9427.67-1.5845v-9.3819h3.581v9.3819c0 1.6431-.573 2.9826-1.718 4.0159h.008ZM118.797 49.7354h-8.889V34.9741h3.602v11.6322h5.287v3.1291ZM121.994 49.7354V34.9741h5.82c2.062 0 3.689.6951 4.882 2.0879 1.193 1.3927 1.792 3.1663 1.792 5.3234 0 2.1571-.594 3.9014-1.781 5.2808-1.188 1.3795-2.818 2.0666-4.893 2.0666h-5.82v.0026Zm3.581-11.5683v8.3753h2.239c.981 0 1.744-.4021 2.293-1.209.546-.8069.821-1.7896.821-2.9453 0-1.1558-.273-2.1678-.821-2.988-.546-.8202-1.312-1.2303-2.293-1.2303h-2.239v-.0027ZM141.004 49.7354l-4.477-14.7613h3.711l2.345 8.9985 2.303-8.9985h3.753l-4.497 14.7613h-3.138ZM160.2 49.7354l-1.237-3.3847h-4.628l-1.237 3.3847h-3.817l5.415-14.7613h3.88l5.393 14.7613h-3.774.005Zm-3.58-11.3313-1.323 4.8628h2.751l-1.428-4.8628ZM170.395 49.7354h-3.559V34.9741h6.077c1.619 0 2.865.4847 3.732 1.4567.866.972 1.301 2.1278 1.301 3.47 0 1.1131-.302 2.1091-.906 2.9879-.605.8788-1.474 1.4594-2.611 1.747l3.581 5.0997h-4.138l-3.156-4.9266h-.321v4.9266Zm2.346-11.6322h-2.346v3.6191h2.346c.54 0 .941-.1784 1.206-.5353.262-.3568.395-.7856.395-1.2862 0-.5007-.133-.9241-.395-1.2756-.263-.3489-.666-.5247-1.206-.5247v.0027ZM191.641 49.7354h-9.721V34.9741h9.53v3.1291h-5.968v2.8282h5.245v3.0625h-5.245v2.6124h6.162v3.1291h-.003ZM199.43 49.7354h-3.602V34.9741h9.446v3.1291h-5.842v2.8282h4.628v3.0838h-4.628v5.7202h-.002ZM217.066 49.7354l-1.238-3.3847h-4.627l-1.238 3.3847h-3.817l5.415-14.7613h3.88l5.393 14.7613h-3.774.006Zm-3.581-11.3313-1.322 4.8628h2.751l-1.429-4.8628ZM234.211 38.9367c0 .5566-.164 1.1292-.49 1.7151-.326.5858-.853.9853-1.577 1.1983.925.1438 1.628.5646 2.11 1.265.482.7004.726 1.4487.726 2.2503 0 1.2143-.392 2.2449-1.171 3.0944-.782.8495-2.004 1.2756-3.668 1.2756h-6.438V34.9741h6.011c1.365 0 2.454.3649 3.273 1.0919.816.7296 1.224 1.6857 1.224 2.8707Zm-6.927 1.7364h1.918c.369 0 .668-.1119.896-.3329.228-.2211.342-.5167.342-.8895 0-.9001-.397-1.3502-1.192-1.3502h-1.962v2.5699l-.002.0027Zm2.26 2.9346h-2.26v2.9986h2.282c.524 0 .93-.1491 1.213-.45.284-.3009.427-.6578.427-1.0706 0-.3861-.138-.7296-.416-1.0279-.278-.2983-.692-.4501-1.248-.4501h.002ZM242.425 49.7354h-3.56V34.9741h6.077c1.62 0 2.865.4847 3.732 1.4567.867.972 1.301 2.1278 1.301 3.47 0 1.1131-.302 2.1091-.906 2.9879-.604.8788-1.474 1.4594-2.611 1.747l3.581 5.0997h-4.137l-3.157-4.9266h-.32v4.9266Zm2.345-11.6322h-2.345v3.6191h2.345c.541 0 .941-.1784 1.206-.5353.262-.3568.395-.7856.395-1.2862 0-.5007-.133-.9241-.395-1.2756-.262-.3489-.665-.5247-1.206-.5247v.0027ZM253.938 49.7354V34.9741h3.559v14.7613h-3.559ZM267.604 42.2576l6.864 7.4778h-4.882l-3.837-4.4979v4.4979h-3.56V34.9741h3.56v4.2076l2.92-4.2076h4.456l-5.521 7.2835ZM57.3227 42.0044c0 3.5152 0 7.105-5.5762 7.105s-5.6928-4.1251-5.6928-7.105V22.7105l-11.208 11.2621v8.0291c0 6.4952.7712 8.2954 4.3889 12.29C42.8522 58.225 48.6643 59 51.8685 59c5.4569 0 9.4296-1.8482 12.276-4.7669 2.7881-2.8601 4.3889-4.8387 4.3889-12.2287V0l-11.208 11.2621v30.7423h-.0027ZM23.1157 40.1056c-7.0895 0-12.8538-5.7948-12.8538-12.9158s5.767-12.8626 12.8538-12.8626c4.2908 0 8.0966 1.9734 10.4315 5.4353h11.4439c-1.1263-3.4619-2.9974-6.3966-5.5311-8.9425-4.365-4.38606-10.1718-6.83074-16.3443-6.83074-6.1725 0-11.9792 2.40207-16.34424 6.78814C2.4038 15.1661 0 20.9929 0 27.1951c0 6.2023 2.4038 12.0344 6.77146 16.4204 2.48861 2.5006 5.44104 4.3568 8.66644 5.4939l9.0533-9.0783c-.4532.0479-.9117.0719-1.3755.0719v.0026Z" fill="#fff"/><path d="m19.4609 33.9753 11.1763-.0054 11.1099-11.278H19.4609v11.2834Z" fill="#fff"/></svg>