<svg width="43" height="37" fill="none" xmlns="http://www.w3.org/2000/svg"><path d="M35.8829 26.3417c0 2.2045 0 4.4557-3.4906 4.4557-3.4907 0-3.5637-2.5869-3.5637-4.4557V14.2422l-7.0161 7.0627v5.0352c0 4.0732.4828 5.2022 2.7474 7.7072C26.8245 36.514 30.4628 37 32.4686 37c3.416 0 5.9029-1.159 7.6847-2.9894 1.7453-1.7936 2.7474-3.0345 2.7474-7.6689V0l-7.0161 7.06265V26.3417h-.0017ZM14.4702 25.1492c-4.4379 0-8.04636-3.634-8.04636-8.0997s3.61006-8.06636 8.04636-8.06636c2.686 0 5.0684 1.23756 6.5301 3.40856h7.1637c-.7051-2.171-1.8763-4.01145-3.4624-5.60802C21.9691 4.03311 18.3342 2.5 14.4702 2.5c-3.8639 0-7.49887 1.50639-10.23133 4.25696C1.50476 9.50921 0 13.1633 0 17.0528c0 3.8896 1.50476 7.547 4.23887 10.2976 1.55785 1.5682 3.40603 2.7322 5.4251 3.4453l5.66733-5.6932c-.2837.03-.5707.0451-.8611.0451v.0016Z" fill="#000"/><path d="m12.1836 21.3065 6.9962-.0034 6.9547-7.0726H12.1836v7.076Z" fill="#000"/></svg>