<svg width="221" height="41" fill="none" xmlns="http://www.w3.org/2000/svg"><path d="M73.466 8.122 71.64 9.686c-.58-.714-1.29-1.071-2.134-1.071-.765 0-1.413.288-1.944.864-.53.575-.794 1.275-.794 2.098 0 .824.265 1.516.794 2.106.53.59 1.179.887 1.944.887 1.334 0 2.11-.457 2.326-1.37h-2.842v-1.995h5.522c0 1.886-.452 3.296-1.355 4.229-.904.933-2.12 1.4-3.651 1.4-1.532 0-2.7-.515-3.71-1.543-1.01-1.027-1.518-2.265-1.518-3.714 0-1.449.505-2.701 1.518-3.729 1.01-1.027 2.247-1.541 3.71-1.541.805 0 1.554.16 2.246.483a4.687 4.687 0 0 1 1.715 1.332h-.002ZM83.62 15.752c-.79.72-1.73 1.08-2.82 1.08-1.091 0-2.03-.36-2.819-1.08-.79-.72-1.186-1.65-1.186-2.79v-6.52h2.473v6.52c0 .446.153.814.463 1.1.31.29.664.432 1.067.432.403 0 .758-.144 1.067-.431.31-.289.463-.655.463-1.101v-6.52h2.473v6.52c0 1.141-.395 2.072-1.186 2.79h.005ZM87.965 16.698V6.44h4.02c1.423 0 2.547.483 3.37 1.45.824.969 1.238 2.201 1.238 3.7 0 1.5-.41 2.711-1.23 3.67-.82.958-1.945 1.436-3.379 1.436h-4.02v.002Zm2.473-8.04v5.82h1.546c.678 0 1.205-.278 1.584-.84.377-.56.567-1.243.567-2.046 0-.803-.189-1.506-.568-2.076-.376-.57-.905-.857-1.583-.857h-1.546ZM106.568 9.194c0 .386-.114.784-.339 1.191-.225.408-.589.685-1.089.833.639.1 1.124.393 1.457.88.333.486.502 1.006.502 1.563 0 .844-.271 1.56-.809 2.15-.54.59-1.384.887-2.534.887h-4.445V6.44h4.153c.942 0 1.695.253 2.26.759.564.507.848 1.171.848 1.995h-.004Zm-4.785 1.206h1.326c.254 0 .461-.076.618-.231.158-.154.236-.36.236-.618 0-.626-.274-.938-.823-.938h-1.355v1.785l-.002.002Zm1.562 2.04h-1.562v2.083h1.576c.363 0 .643-.103.84-.312.196-.21.295-.457.295-.744a1.02 1.02 0 0 0-.287-.715c-.192-.209-.478-.312-.862-.312ZM112.239 16.698h-2.458V6.44h4.197c1.119 0 1.979.337 2.577 1.012.599.676.899 1.479.899 2.412 0 .773-.209 1.465-.626 2.076-.417.61-1.018 1.014-1.805 1.214l2.475 3.544h-2.857l-2.178-3.424h-.222v3.424h-.002Zm1.62-8.084h-1.62v2.515h1.62c.374 0 .65-.124.833-.372.181-.248.273-.546.273-.893 0-.348-.092-.643-.273-.887-.181-.242-.459-.364-.833-.364v.001ZM126.766 16.698l-.853-2.352h-3.196l-.855 2.352h-2.635l3.739-10.258h2.68l3.724 10.258h-2.606.002Zm-2.473-7.874-.913 3.379h1.9l-.987-3.38ZM136.608 6.44h2.458v10.258h-2.15L133.81 11.1v5.598h-2.458V6.44h2.223l3.033 5.522V6.44ZM142.299 16.698V6.44h4.019c1.424 0 2.548.483 3.372 1.45.823.969 1.237 2.201 1.237 3.7 0 1.5-.41 2.711-1.23 3.67-.82.958-1.946 1.436-3.379 1.436h-4.019v.002Zm2.473-8.04v5.82h1.546c.677 0 1.205-.278 1.584-.84.377-.56.567-1.243.567-2.046 0-.803-.189-1.506-.567-2.076-.378-.57-.907-.857-1.584-.857h-1.546ZM153.057 13.644h2.487c.02.298.132.539.339.722.207.183.51.276.913.276.344 0 .639-.08.884-.239a.768.768 0 0 0 .368-.685.726.726 0 0 0-.029-.223c-.02-.06-.114-.154-.28-.284-.167-.13-.403-.242-.707-.342l-1.193-.402a4.708 4.708 0 0 1-1.369-.596c-.374-.247-.646-.518-.817-.81a2.997 2.997 0 0 1-.463-1.614c0-.932.333-1.69 1.001-2.27.669-.582 1.518-.872 2.548-.872 1.031 0 1.871.285 2.519.857.648.57.972 1.353.972 2.344h-2.458c0-.634-.354-.953-1.06-.953-.333 0-.597.074-.787.224a.715.715 0 0 0-.288.596c0 .368.315.646.943.835l1.151.364c1.882.598 2.823 1.642 2.825 3.134 0 .714-.202 1.317-.604 1.808-.403.49-.874.832-1.413 1.027-.54.194-1.119.29-1.737.29-1.139 0-2.047-.29-2.724-.871-.677-.582-1.016-1.353-1.016-2.316h-.005ZM163.256 16.698V6.44h4.019c1.424 0 2.548.483 3.372 1.45.823.969 1.237 2.201 1.237 3.7 0 1.5-.41 2.711-1.23 3.67-.82.958-1.946 1.436-3.379 1.436h-4.019v.002Zm2.473-8.04v5.82h1.546c.678 0 1.205-.278 1.584-.84.377-.56.567-1.243.567-2.046 0-.803-.189-1.506-.567-2.076-.377-.57-.906-.857-1.584-.857h-1.546ZM180.494 16.698l-.855-2.352h-3.195l-.855 2.352h-2.636l3.74-10.258h2.679l3.725 10.258h-2.607.004Zm-2.473-7.874-.913 3.379h1.9l-.987-3.38ZM191.217 16.698h-6.139V6.44h2.488v8.083h3.651v2.175ZM200.141 16.698h-6.713V6.44h6.582v2.174h-4.122v1.966h3.622v2.128h-3.622v1.815h4.255v2.173l-.002.002ZM208.286 6.44h2.458v10.258h-2.15l-3.107-5.598v5.598h-2.458V6.44h2.224l3.033 5.522V6.44ZM213.5 13.644h2.487c.021.298.132.539.339.722.207.183.511.276.913.276.345 0 .639-.08.884-.239a.766.766 0 0 0 .368-.685.726.726 0 0 0-.029-.223c-.02-.06-.113-.154-.28-.284-.167-.13-.403-.242-.706-.342l-1.194-.402a4.708 4.708 0 0 1-1.369-.596c-.373-.247-.646-.518-.816-.81a3.335 3.335 0 0 1-.361-.825 3.039 3.039 0 0 1-.102-.789c0-.932.333-1.69 1.001-2.27.668-.582 1.517-.872 2.548-.872 1.03 0 1.87.285 2.518.857.648.57.972 1.353.972 2.344h-2.458c0-.634-.353-.953-1.06-.953-.333 0-.596.074-.787.224a.715.715 0 0 0-.287.596c0 .368.315.646.942.835l1.152.364c1.881.598 2.822 1.642 2.824 3.134 0 .714-.201 1.317-.604 1.808-.403.49-.873.832-1.413 1.027-.54.194-1.118.29-1.737.29-1.139 0-2.046-.29-2.724-.871-.677-.582-1.016-1.353-1.016-2.316h-.005ZM71.56 33.616c-.791.72-1.73 1.079-2.82 1.079-1.092 0-2.03-.36-2.82-1.079-.79-.72-1.186-1.65-1.186-2.79v-6.52h2.473v6.52c0 .445.154.814.463 1.1.31.29.665.432 1.067.432.403 0 .758-.145 1.067-.432.31-.286.463-.655.463-1.1v-6.52h2.473v6.52c0 1.141-.395 2.072-1.186 2.79h.006ZM82.045 34.562h-6.139V24.304h2.488v8.083h3.651v2.175ZM84.252 34.562V24.304h4.02c1.423 0 2.547.483 3.37 1.45.825.969 1.238 2.201 1.238 3.7 0 1.5-.41 2.711-1.23 3.67-.82.959-1.945 1.436-3.379 1.436h-4.019v.002Zm2.473-8.04v5.821h1.546c.678 0 1.205-.28 1.584-.84.377-.561.567-1.244.567-2.047 0-.803-.188-1.506-.567-2.076-.377-.57-.906-.855-1.584-.855h-1.546v-.002ZM97.38 34.562l-3.09-10.258h2.562l1.62 6.253 1.59-6.253h2.592l-3.106 10.258H97.38ZM110.639 34.562l-.855-2.352h-3.196l-.855 2.352h-2.635l3.739-10.258h2.68l3.724 10.258h-2.606.004Zm-2.473-7.874-.913 3.379h1.899l-.986-3.38ZM117.679 34.562h-2.458V24.304h4.197c1.118 0 1.978.337 2.577 1.012.598.676.899 1.479.899 2.412 0 .773-.209 1.465-.626 2.076-.418.61-1.018 1.014-1.803 1.214l2.472 3.544h-2.857l-2.18-3.424h-.221v3.424Zm1.62-8.084h-1.62v2.515h1.62c.373 0 .65-.124.833-.372.181-.248.272-.545.272-.893s-.091-.643-.272-.887c-.182-.242-.46-.364-.833-.364v.001ZM132.352 34.562h-6.713V24.304h6.582v2.174h-4.122v1.966h3.622v2.128h-3.622v1.815h4.255v2.175h-.002ZM137.732 34.562h-2.488V24.304h6.523v2.174h-4.034v1.966h3.196v2.143h-3.196v3.975h-.001ZM149.91 34.562l-.855-2.352h-3.195l-.855 2.352h-2.636l3.74-10.258h2.679l3.725 10.258h-2.606.003Zm-2.473-7.874-.913 3.379h1.9l-.987-3.38ZM161.753 27.058c0 .386-.113.784-.338 1.191-.225.408-.59.685-1.089.833.639.1 1.124.392 1.457.88.333.486.501 1.006.501 1.563 0 .844-.271 1.56-.809 2.15-.54.59-1.384.887-2.533.887h-4.446V24.304h4.151c.943 0 1.695.254 2.261.759.564.507.845 1.171.845 1.995Zm-4.784 1.206h1.325a.852.852 0 0 0 .619-.231c.157-.154.236-.36.236-.618 0-.626-.275-.938-.824-.938h-1.354v1.785l-.002.002Zm1.561 2.04h-1.561v2.083h1.576c.362 0 .642-.103.838-.312.196-.21.295-.458.295-.744 0-.269-.095-.507-.288-.715-.192-.207-.477-.312-.862-.312h.002ZM167.425 34.562h-2.458V24.304h4.197c1.118 0 1.978.337 2.577 1.012.598.676.899 1.479.899 2.412 0 .773-.209 1.465-.626 2.076-.418.61-1.018 1.014-1.803 1.214l2.473 3.544h-2.858l-2.18-3.424h-.221v3.424Zm1.62-8.084h-1.62v2.515h1.62c.373 0 .65-.124.833-.372.181-.248.272-.545.272-.893s-.091-.643-.272-.887c-.182-.242-.46-.364-.833-.364v.001ZM175.377 34.562V24.304h2.458v10.258h-2.458ZM184.814 29.365l4.74 5.197h-3.371l-2.651-3.126v3.126h-2.458V24.304h2.458v2.924l2.017-2.924h3.077l-3.812 5.061ZM39.588 29.19c0 2.442 0 4.937-3.851 4.937-3.852 0-3.932-2.867-3.932-4.938V15.782l-7.74 7.826v5.58c0 4.513.532 5.764 3.03 8.54C29.595 40.461 33.608 41 35.822 41c3.769 0 6.512-1.284 8.478-3.313 1.925-1.987 3.031-3.362 3.031-8.497V0l-7.74 7.826V29.19h-.002ZM15.964 27.87c-4.896 0-8.877-4.027-8.877-8.975 0-4.949 3.983-8.939 8.877-8.939 2.964 0 5.592 1.372 7.205 3.777h7.903c-.778-2.405-2.07-4.445-3.82-6.214-3.014-3.048-7.025-4.747-11.288-4.747S7.691 4.442 4.677 7.49C1.66 10.54 0 14.59 0 18.9c0 4.31 1.66 8.362 4.677 11.41a15.864 15.864 0 0 0 5.985 3.818l6.252-6.309c-.313.034-.63.05-.95.05v.002Z" fill="#000"/><path d="m13.44 23.61 7.718-.004 7.673-7.837H13.44v7.841Z" fill="#000"/></svg>