<?xml version="1.0" standalone="no"?>
<!DOCTYPE svg PUBLIC "-//W3C//DTD SVG 20010904//EN"
 "http://www.w3.org/TR/2001/REC-SVG-20010904/DTD/svg10.dtd">
<svg version="1.0" xmlns="http://www.w3.org/2000/svg"
 width="700.000000pt" height="700.000000pt" viewBox="0 0 700.000000 700.000000"
 preserveAspectRatio="xMidYMid meet">
<metadata>
Created by potrace 1.14, written by Peter Selinger 2001-2017
</metadata>
<g transform="translate(0.000000,700.000000) scale(0.100000,-0.100000)"
fill="#000000" stroke="none">
<path d="M6411 5938 l-571 -573 0 -1665 c-1 -916 -3 -1685 -6 -1710 -29 -259
-107 -381 -286 -448 -81 -30 -135 -37 -288 -37 -147 1 -240 21 -327 71 -99 59
-175 168 -208 301 -27 106 -30 237 -30 1290 0 563 -2 1023 -4 1023 -2 0 -260
-258 -573 -572 l-568 -573 1 -545 c1 -550 5 -636 35 -820 19 -118 94 -302 165
-407 54 -80 179 -233 259 -316 205 -216 485 -357 844 -427 155 -30 176 -32
396 -37 230 -5 393 12 570 62 289 81 499 205 720 425 234 234 331 394 390 645
11 44 21 96 24 115 2 19 7 55 10 80 3 25 9 70 12 100 6 49 13 4590 8 4590 -1
0 -259 -258 -573 -572z"/>
<path d="M2258 6105 c-2 -1 -46 -5 -99 -9 -201 -13 -465 -74 -664 -153 -743
-294 -1291 -950 -1449 -1733 -15 -74 -18 -93 -35 -235 -19 -150 -9 -480 19
-630 54 -288 113 -465 232 -698 185 -362 463 -671 813 -902 117 -77 302 -174
423 -220 l73 -29 460 460 c252 252 459 461 459 464 0 3 -66 5 -148 5 -165 1
-240 12 -390 61 -467 152 -805 549 -887 1044 -21 125 -17 352 9 469 110 503
474 883 963 1007 127 32 191 39 343 38 259 -3 487 -73 699 -215 101 -67 233
-192 299 -281 l43 -58 579 0 c510 0 580 2 580 15 0 25 -69 192 -127 310 -105
211 -252 412 -435 595 -386 384 -859 616 -1393 680 -79 10 -360 21 -367 15z"/>
<path d="M1985 4192 c-3 -3 -5 -263 -5 -579 l0 -573 571 0 571 1 91 93 c473
482 1005 1022 1020 1035 9 8 17 18 17 22 0 8 -2257 9 -2265 1z"/>
</g>
</svg>
